<?xml version="1.0" encoding="utf-8"?>
<!-- Generator: Adobe Illustrator 22.1.0, SVG Export Plug-In . SVG Version: 6.00 Build 0)  -->
<svg version="1.1" id="Livello_1" xmlns="http://www.w3.org/2000/svg" xmlns:xlink="http://www.w3.org/1999/xlink" x="0px" y="0px"
	 viewBox="0 0 369.4 324.9" style="enable-background:new 0 0 369.4 324.9;" xml:space="preserve">
<style type="text/css">
	.st0{fill:#101820;}
	.st1{fill:#FFFFFF;}
	.st2{fill:#E1251B;}
</style>
<polygon class="st0" points="83.2,324.6 63.8,324.6 63.8,293.3 48.3,324.6 35.4,324.6 20,293.5 20,324.6 0.5,324.6 0.5,255.3 
	21.5,255.3 41.8,293.2 62.2,255.3 83.2,255.3 "/>
<polygon class="st0" points="146.7,324.6 91.5,324.6 91.5,255.3 146.2,255.3 146.2,272.1 111.4,272.1 111.4,282.3 143.4,282.3 
	143.4,297.5 111.4,297.5 111.4,307.9 146.7,307.9 "/>
<polygon class="st0" points="195.1,272.4 195.1,324.6 175.1,324.6 175.1,272.4 153.4,272.4 153.4,255.3 216.8,255.3 216.8,272.4 "/>
<path class="st0" d="M347.6,324.6l-3.8-10.6h-27.3l-3.9,10.6h-21.3l27.9-69.3h21.9l27.9,69.3H347.6z M330.2,276.6l-7.7,20.8h15.2
	L330.2,276.6z"/>
<path class="st0" d="M265.5,324.6l-19-22.1h-2.7v22.1h-19.9v-69.3h36.9c7.5,0,13.5,2.1,18.1,6.4c4.6,4.3,6.9,9.9,6.9,16.9
	c0,5.5-1.5,10.3-4.4,14.2c-3,4-7,6.7-12.2,8.3l20.3,23.5H265.5z M257.2,286.8c2.8,0,5-0.7,6.6-2.1c1.7-1.4,2.5-3.3,2.5-5.5
	c0-2.2-0.8-4-2.5-5.3c-1.7-1.3-3.9-2-6.6-2h-13.4v15H257.2z"/>
<path class="st1" d="M68.9,116.4c0-63.9,51.9-115.6,115.9-115.6s115.9,51.8,115.9,115.6c0,63.9-51.9,115.6-115.9,115.6
	S68.9,180.3,68.9,116.4"/>
<path class="st2" d="M299,135.9c-7.7,44.9-41.3,81-84.9,92.4l0-60.4c0-9.8,10.6-12.8,20-15.3C258.7,146.2,274.3,142.4,299,135.9"/>
<path class="st2" d="M155.5,228.3c-44.6-11.7-77.1-46.9-85-92.4c24.7,6.5,40.3,10.3,65,16.8c9.4,2.5,20,5.4,20,15.3L155.5,228.3z"/>
<path class="st2" d="M249.8,20.6C231.2,8,208.8,0.7,184.8,0.7c-24.1,0-46.5,7.3-65,19.9l49.8,57l0,0c6.5,7.3,11.7,13.7,11.7,25.4
	v129c1.4,0.1,1.7,0.1,3.5,0.1c1.9,0,2.1,0,3.5-0.1l0-129c0-11.6,5.1-18,11.6-25.3L249.8,20.6z"/>
<path class="st0" d="M147.2,95.4c-2.6-1.8-5.3-3.7-8.2-5.6L86.8,55.4c-0.3-0.2-0.4-0.3-0.4-0.3c-7,11.1-12.1,23.4-15,36.6l57.6,26.3
	l0,0c20.5,9.7,36,21.9,36,46.7l0,65.5c2.6,0.5,7.1,1,7.1,1V129.6C172,114.2,160.8,104.8,147.2,95.4"/>
<path class="st0" d="M222.2,95.4c2.6-1.8,5.3-3.7,8.2-5.6l52.2-34.3c0.3-0.2,0.4-0.3,0.4-0.3c7,11.1,12.1,23.4,15,36.6l-57.6,26.3
	l0,0c-20.5,9.7-36,21.9-36,46.7l0,65.5c-2.6,0.5-7.1,1-7.1,1V129.6C197.5,114.2,208.7,104.8,222.2,95.4"/>
</svg>
